. 
  
http://www.torrentday.com/        :     The Hottest Private Tracker On The Net!!!


               www . TorrentDay . Com 
(((((((((((((= Enjoy No RAR releases =))))))))))))))))))))


...................................NFO:....................................

.
                                                     
                                                   
                                                         
                                                          
                                                           
                                                          
                                                          
                                                          
                                                           
                                                         
                                                          
                                                        
                                                      
                                     
                                                 
                                                   
                                             
                                              
                                                     
                                                      
                                                      
                                                      
                                                    
                                                     
                                                   
                                                     
                                                     
                                                      
                                                     
                                                      
                                                    
                 ARTiCHOKE                        
                                                
                      
                                                        
                                                      
                                                      
                                               
                                          
                                                   
                                            
                                                    
                                                       
                                                        
                                                      
                                                
                                                        
                                                 
                                              
                                                  
                                                
                                                  
                                        

      
                                
      SPRiNTER proudly presents...     
                                
      
 
 Wallpaper.An.Erotic.Love.Story.1992.DVDRip.XviD-SPRiNTER  http://www.imdb.com/title/tt0108478/
 Audio: Icelandic
 Subtitles: English

 Date: 2010.12

 Director: Jlus Kemp
 Genre: Drama | Comedy

 Cast

	Baltasar Kormkur	 ...	Lass
	Steinn rmann Magnsson	 ...	Sveppi
	Ingibjrg Stefnsdttir	 ...	Sl / Herself ("Ps of Keik")
	Ari Matthasson	 ...	Uggi
	Flosi lafsson	 ...	Geirvar Pll
	Dra Takefusa	 ...	Andrea
	Sveinbjrn Matthasson	 ...	Ktelettukall
	Brynds Einarsdttir	 ...	Drpuhlardrottning
	Slrn orgeirsdttir	 ...	Dsa
	Halldr Gylfason	 ...	Ruddi
	Birgir Karlsson	 ...	Danni
	Rsa Inglfsdttir	 ...	Gugga
	Egill lafsson	 ...	Kennari
	Svava Sigurjnsdttir	 ...	Anna ra
	gst Gujn Kristinsson	 ...	Menntsklingur


      
                 
      Release notes     
                 
      

 Crop varies so we cropped to the widest frame to avoid over-cropping.

 Enjoy!


      
           
     Greetings    
           
      


NTX aAF FiCO HNR CiNEFiLE AEN HUMANiSM MOViERUSH


      
           
      Details     
           
      

Format                           : AVI
Format/Info                      : Audio Video Interleave
File size                        : 702 MiB
Duration                         : 1h 24mn
Overall bit rate                 : 1 157 Kbps
Writing application              : Nandub v1.0rc2
Writing library                  : Nandub build 1852/release

Video
ID                               : 0
Format                           : MPEG-4 Visual
Format profile                   : Advanced Simple@L5
Format settings, BVOP            : Yes
Format settings, QPel            : No
Format settings, GMC             : No warppoints
Format settings, Matrix          : Default (H.263)
Codec ID                         : XVID
Codec ID/Hint                    : XviD
Duration                         : 1h 24mn
Bit rate                         : 1 010 Kbps
Width                            : 608 pixels
Height                           : 384 pixels
Display aspect ratio             : 1.583
Frame rate                       : 24.000 fps
Color space                      : YUV
Chroma subsampling               : 4:2:0
Bit depth                        : 8 bits
Scan type                        : Progressive
Bits/(Pixel*Frame)               : 0.180
Stream size                      : 613 MiB (87%)
Writing library                  : XviD 1.2.0.dev47 (UTC 2006-11-01)

Audio
ID                               : 1
Format                           : MPEG Audio
Format version                   : Version 1
Format profile                   : Layer 3
Mode                             : Joint stereo
Mode extension                   : MS Stereo
Codec ID                         : 55
Codec ID/Hint                    : MP3
Duration                         : 1h 24mn
Bit rate mode                    : Variable
Bit rate                         : 134 Kbps
Minimum bit rate                 : 128 Kbps
Channel(s)                       : 2 channels
Sampling rate                    : 48.0 KHz
Video delay                      : 168ms
Stream size                      : 81.4 MiB (12%)
Alignment                        : Aligned on interleaves
Interleave, duration             : 24 ms (0.58 video frame)
Interleave, preload duration     : 778 ms
Writing library                  : LAME3.95 
Encoding settings                : -m j -V 4 -q 3 -lowpass 18 --vbr-old -b 128